<svg id="svg2" xmlns="http://www.w3.org/2000/svg" viewBox="0 0 33.0439 33.32895"><defs><style>.cls-1,.cls-15,.cls-16{fill:none;}.cls-18,.cls-2{fill:#fff;}.cls-10,.cls-11,.cls-12,.cls-13,.cls-14,.cls-17,.cls-18,.cls-2,.cls-3,.cls-4,.cls-5,.cls-6,.cls-7,.cls-8,.cls-9{fill-rule:evenodd;}.cls-3{fill:#018a00;}.cls-4{fill:#058d00;}.cls-5{fill:#089001;}.cls-6{fill:#0c9301;}.cls-7{fill:#0f9602;}.cls-8{fill:#139902;}.cls-9{fill:#169c03;}.cls-10{fill:#1a9f03;}.cls-11{fill:#1da204;}.cls-12{fill:#21a504;}.cls-13{fill:#24a805;}.cls-14{fill:#28ab05;}.cls-15{stroke:#018a00;}.cls-16{stroke:#048e00;}.cls-17{fill:#e6e6e6;}.cls-18{fill-opacity:0.50196;}</style></defs><title>button 4SVG</title><polygon id="polygon178" class="cls-1" points="646.472 214.236 -55.783 214.236 -55.783 -368.255 646.472 -368.255 646.472 214.236"/><g id="g3168"><path id="path3170" class="cls-2" d="M4.65186,28.5384A14.93885,14.93885,0,0,1,.03139,16.66123,17.577,17.577,0,0,1,8.36525,2.74312,22.25448,22.25448,0,0,1,12.22037.81556,12.40024,12.40024,0,0,1,18.93848.19194C24.04084,1.014,27.18729,3.59351,30.107,7.6754a16.2009,16.2009,0,0,1-4.96063,23.15906A16.45926,16.45926,0,0,1,16.3873,33.329,17.25477,17.25477,0,0,1,4.65186,28.5384Zm.45355-.45355A14.30606,14.30606,0,0,1,.655,16.66123,16.97867,16.97867,0,0,1,8.67706,3.2817a20.70364,20.70364,0,0,1,3.71338-1.87086,12.01514,12.01514,0,0,1,6.463-.59528c4.90393.82205,7.90866,3.28819,10.715,7.2a15.5785,15.5785,0,0,1-4.73386,22.28032A16.11791,16.11791,0,0,1,16.3873,32.677,16.58512,16.58512,0,0,1,5.10541,28.08485Z"/><g id="g3172"><path id="path3174" class="cls-3" d="M7.28808,25.87383a12.09945,12.09945,0,0,1-3.14645-5.074A13.37787,13.37787,0,0,1,5.47391,10.70847a14.688,14.688,0,0,1,7.71024-6.3496,9.67017,9.67017,0,0,1,5.21574-.51024c3.96851.652,6.4063,2.66457,8.674,5.811A12.16217,12.16217,0,0,1,29.37,16.66123,12.95048,12.95048,0,0,1,16.41564,29.61556,13.41621,13.41621,0,0,1,7.28808,25.87383Z"/><g id="g3176"><path id="path3178" class="cls-4" d="M7.77,25.93052A11.14009,11.14009,0,0,1,4.79359,21.14a12.4382,12.4382,0,0,1,1.24725-9.49606,13.59558,13.59558,0,0,1,7.42677-5.75433,10.9585,10.9585,0,0,1,5.1874-.51024c3.65669.53858,5.89606,2.55118,7.96536,5.52756A11.22227,11.22227,0,0,1,28.54792,17.54,12.094,12.094,0,0,1,16.41564,29.41714,12.69939,12.69939,0,0,1,7.77,25.93052Z"/><path id="path3180" class="cls-5" d="M8.25186,25.95887a10.80119,10.80119,0,0,1-2.83464-4.47874,11.66915,11.66915,0,0,1,1.19055-8.87244c1.474-2.49449,4.05354-4.13859,7.1433-5.1874a13.18017,13.18017,0,0,1,5.13071-.51024c3.40158.39685,5.41418,2.4378,7.285,5.21575a10.46868,10.46868,0,0,1,1.5874,6.29291A11.29285,11.29285,0,0,1,16.41564,29.24706,11.90828,11.90828,0,0,1,8.25186,25.95887Z"/><path id="path3182" class="cls-6" d="M8.73375,26.01556a9.67747,9.67747,0,0,1-2.66457-4.19527A10.869,10.869,0,0,1,7.1747,13.54312c1.33228-2.18268,3.85511-3.65669,6.83149-4.56378a16.2229,16.2229,0,0,1,5.13071-.53858c3.11811.25512,4.90394,2.35275,6.57638,4.90394a9.5122,9.5122,0,0,1,1.2189,5.95275A10.45632,10.45632,0,0,1,16.41564,29.077,11.46134,11.46134,0,0,1,8.73375,26.01556Z"/><path id="path3184" class="cls-7" d="M9.1873,26.04391a9.26941,9.26941,0,0,1-2.49449-3.88347,10.0693,10.0693,0,0,1,1.04882-7.68189c1.19055-1.89921,3.685-3.14645,6.548-3.9685a22.23368,22.23368,0,0,1,5.074-.53858c2.83465.11338,4.4504,2.23937,5.89607,4.59212a8.58944,8.58944,0,0,1,.85039,5.6126A9.59725,9.59725,0,0,1,16.444,28.87855,10.78217,10.78217,0,0,1,9.1873,26.04391Z"/><path id="path3186" class="cls-8" d="M9.66918,26.1006a8.49986,8.49986,0,0,1-2.3244-3.57165,9.31381,9.31381,0,0,1,.96377-7.115c1.04882-1.5874,3.48662-2.66457,6.26457-3.34489a33.59809,33.59809,0,0,1,5.04567-.56692c2.55118-.02835,3.94016,2.15433,5.1874,4.28031a7.71867,7.71867,0,0,1,.51024,5.27244A8.83184,8.83184,0,0,1,16.444,28.70847,10.29665,10.29665,0,0,1,9.66918,26.1006Z"/><path id="path3188" class="cls-9" d="M10.15107,26.129A7.89262,7.89262,0,0,1,7.9684,22.8691c-.68032-2.06929-.02835-5.38582.93543-6.51968.87874-1.30394,3.25984-2.15433,5.95276-2.74961,2.01259-.34015,3.91181-.45354,5.01732-.56693,2.23937-.17007,3.42992,2.04095,4.47874,3.96851a7.04265,7.04265,0,0,1,.14173,4.93228A8.0653,8.0653,0,0,1,16.444,28.5384,9.55684,9.55684,0,0,1,10.15107,26.129Z"/><path id="path3190" class="cls-10" d="M10.633,26.15729a6.9591,6.9591,0,0,1-2.01259-2.948c-.652-1.89921,0-5.074.85039-5.92441.737-.99212,3.06142-1.67244,5.64094-2.15433,2.0693-.25512,4.0252-.39685,4.989-.56693,1.98425-.31181,2.948,1.92756,3.79843,3.6567a6.26673,6.26673,0,0,1-.22678,4.59212A7.23734,7.23734,0,0,1,16.444,28.34,8.88136,8.88136,0,0,1,10.633,26.15729Z"/><path id="path3192" class="cls-11" d="M11.11485,26.214a5.90156,5.90156,0,0,1-1.84252-2.66457c-.59527-1.70079.02835-4.7622.76536-5.30079.59527-.737,2.89134-1.19055,5.35748-1.559a38.56533,38.56533,0,0,0,4.96063-.59528c1.67244-.4252,2.43779,1.84252,3.08976,3.37323a5.62265,5.62265,0,0,1-.56693,4.22362A6.62951,6.62951,0,0,1,16.444,28.16989,8.26817,8.26817,0,0,1,11.11485,26.214Z"/><path id="path3194" class="cls-12" d="M11.5684,26.24233A5.46338,5.46338,0,0,1,9.896,23.88958c-.53859-1.50236.11338-4.4504.70866-4.70551.45354-.4252,2.69291-.70867,5.074-.96378a22.68914,22.68914,0,0,0,4.90394-.59528c1.41732-.56693,1.95591,1.72913,2.40945,3.06142a5.04,5.04,0,0,1-.93543,3.88346,6.03674,6.03674,0,0,1-5.58426,3.42992A7.84647,7.84647,0,0,1,11.5684,26.24233Z"/><path id="path3196" class="cls-13" d="M12.05029,26.299a4.65452,4.65452,0,0,1-1.50237-2.0693c-.51023-1.30393.14174-4.13858.62363-4.11023.31181-.14173,2.49449-.19843,4.79055-.34016,2.15433-.085,4.30866-.25512,4.87559-.62362,1.13386-.70866,1.44567,1.64409,1.70079,2.74961a4.51918,4.51918,0,0,1-1.30394,3.5433,5.6941,5.6941,0,0,1-4.76221,2.35276A7.0651,7.0651,0,0,1,12.05029,26.299Z"/></g><path id="path3198" class="cls-14" d="M12.53218,26.32737a4.0638,4.0638,0,0,1-1.36063-1.75748c-.4252-1.10551.19842-3.82677.56693-3.515s8.50393.48189,9.326-.3685c.85039-.8504.99213,1.53071,1.02047,2.43779,0,2.49449-2.52283,4.50709-5.6126,4.50709A6.69946,6.69946,0,0,1,12.53218,26.32737Z"/></g><path id="path3200" class="cls-14" d="M8.30855,17.11477c-5.47086,2.97638-3.685-12.55748,8.10709-12.52913,12.8126.05669,13.43622,14.71181,8.674,12.52913C21.48966,15.499,12.07863,15.07383,8.30855,17.11477Z"/><path id="path3202" class="cls-14" d="M16.41564,25.93052A12.853,12.853,0,0,1,4.68021,18.33367a8.60669,8.60669,0,0,1-.68032-3.34488A11.7556,11.7556,0,0,0,8.11013,26.4691a12.85356,12.85356,0,0,0,21.14646-9.80787,12.59235,12.59235,0,0,0-.11339-1.78583A12.786,12.786,0,0,1,16.41564,25.93052Z"/><g id="g3204"><g id="g3206"><path id="path3208" class="cls-15" d="M15.39517,23.74784c-.68032.36851-1.27559.45355-1.27559-1.02047v-3.5433H10.7747a1.23414,1.23414,0,0,1-1.24725-1.2189v-.8504h0V16.236a1.23414,1.23414,0,0,1,1.24725-1.21889h3.34488V11.19036c0-.93543.34016-1.13385.96378-.822l8.13543,6.15118a.88328.88328,0,0,1-.02835,1.30394Z"/><path id="path3210" class="cls-3" d="M15.39517,23.74784c-.68032.36851-1.27559.45355-1.27559-1.02047v-3.5433H10.7747a1.23414,1.23414,0,0,1-1.24725-1.2189v-.8504h0V16.236a1.23414,1.23414,0,0,1,1.24725-1.21889h3.34488V11.19036c0-.93543.34016-1.13385.96378-.822l8.13543,6.15118a.88328.88328,0,0,1-.02835,1.30394Z"/></g><g id="g3212"><g id="g3214"><path id="path3216" class="cls-16" d="M15.39517,22.84076c-.68032.3685-1.27559.48189-1.27559-.99213v-3.5433H10.7747a1.23414,1.23414,0,0,1-1.24725-1.2189v-.87874h0v-.8504A1.23414,1.23414,0,0,1,10.7747,14.1384h3.34488V10.31162c0-.93543.34016-1.1622.96378-.822l8.13543,6.15118a.884.884,0,0,1-.02835,1.30394Z"/><path id="path3218" class="cls-17" d="M15.39517,22.84076c-.68032.3685-1.27559.48189-1.27559-.99213v-3.5433H10.7747a1.23414,1.23414,0,0,1-1.24725-1.2189v-.87874h0v-.8504A1.23414,1.23414,0,0,1,10.7747,14.1384h3.34488V10.31162c0-.93543.34016-1.1622.96378-.822l8.13543,6.15118a.884.884,0,0,1-.02835,1.30394Z"/></g><path id="path3220" class="cls-2" d="M9.52745,16.17934v-.822A1.23414,1.23414,0,0,1,10.7747,14.1384h3.34488V10.31162c0-.93543.34016-1.1622.96378-.822l8.13543,6.15118a1.108,1.108,0,0,1,.28347.53858Z"/></g></g><path id="path3222" class="cls-18" d="M4.68021,28.51005A14.8799,14.8799,0,0,1,.05974,16.66123,17.61249,17.61249,0,0,1,8.36525,2.77147,19.83813,19.83813,0,0,1,12.24871.84391,12.27436,12.27436,0,0,1,18.93848.22029c5.10236.822,8.22047,3.40157,11.14015,7.45511a16.17974,16.17974,0,0,1-4.93228,23.13071A16.53119,16.53119,0,0,1,16.3873,33.3006,17.18583,17.18583,0,0,1,4.68021,28.51005ZM15.59359,5.12422c2.09764,2.32441,1.33229,6.49134-1.72913,9.29764-3.08976,2.83465-7.285,3.2315-9.411.93543-1.50237-1.61574-1.89922-7.51181-2.4378,1.30394A13.157,13.157,0,0,0,6.06918,27.12107a15.1242,15.1242,0,0,0,10.34646,4.19528,14.37234,14.37234,0,0,0,7.00158-1.78583,2.05209,2.05209,0,0,1-1.50237-.652c-.96378-1.04882-.62362-2.89133.76536-4.16693s3.25984-1.44566,4.22362-.42519a2.39972,2.39972,0,0,1,.45354,2.15433A14.12026,14.12026,0,0,0,28.46289,8.75257c-2.55119-3.6-5.32914-5.83937-9.80788-6.60472a11.02754,11.02754,0,0,0-5.89606.56692A16.93615,16.93615,0,0,0,10.3495,3.82029,5.36074,5.36074,0,0,1,15.59359,5.12422Z"/><path id="path3224" class="cls-18" d="M4.65186,28.5384A14.93885,14.93885,0,0,1,.03139,16.66123,17.577,17.577,0,0,1,8.36525,2.74312,22.25448,22.25448,0,0,1,12.22037.81556,12.40024,12.40024,0,0,1,18.93848.19194C24.04084,1.014,27.18729,3.59351,30.107,7.6754a16.2009,16.2009,0,0,1-4.96063,23.15906A16.45926,16.45926,0,0,1,16.3873,33.329,17.25477,17.25477,0,0,1,4.65186,28.5384Zm3.99685-4.0252a9.91929,9.91929,0,0,1-3.06141-7.852,11.69185,11.69185,0,0,1,5.52755-9.2126A12.86068,12.86068,0,0,1,13.69438,6.173a8.14077,8.14077,0,0,1,4.42205-.42519c3.37323.56692,5.47086,2.26771,7.39842,4.96062a10.70313,10.70313,0,0,1-3.28818,15.33544A10.95381,10.95381,0,0,1,16.444,27.688,11.398,11.398,0,0,1,8.64871,24.5132Z"/><path id="path3226" class="cls-2" d="M15.707,2.96989c.822,1.389-.19843,3.48662-2.26772,4.67717S9.04556,8.69588,8.22352,7.3069c-.79371-1.389.22677-3.48661,2.29606-4.67717C12.58887,1.41084,14.91328,1.58092,15.707,2.96989Z"/><path id="path3228" class="cls-2" d="M7.48651,7.6754c.652.70867.31181,2.0693-.737,3.00473-1.04882.96378-2.4378,1.1622-3.08976.45354s-.31182-2.04094.737-3.00472C5.47391,7.16517,6.83454,6.96674,7.48651,7.6754Z"/><path id="path3230" class="cls-2" d="M23.41722,28.425c.45354.62362.02834,1.67244-.90709,2.32441-.96378.652-2.06929.652-2.52284.02835-.42519-.652,0-1.70079.93544-2.32441C21.85816,27.80139,22.992,27.773,23.41722,28.425Z"/></g></svg>