<svg id="svg2" xmlns="http://www.w3.org/2000/svg" viewBox="0 0 33.0439 33.35729"><defs><style>.cls-1,.cls-15,.cls-16{fill:none;}.cls-18,.cls-2{fill:#fff;}.cls-10,.cls-11,.cls-12,.cls-13,.cls-14,.cls-17,.cls-18,.cls-2,.cls-3,.cls-4,.cls-5,.cls-6,.cls-7,.cls-8,.cls-9{fill-rule:evenodd;}.cls-3{fill:#018a00;}.cls-4{fill:#058d00;}.cls-5{fill:#089001;}.cls-6{fill:#0c9301;}.cls-7{fill:#0f9602;}.cls-8{fill:#139902;}.cls-9{fill:#169c03;}.cls-10{fill:#1a9f03;}.cls-11{fill:#1da204;}.cls-12{fill:#21a504;}.cls-13{fill:#24a805;}.cls-14{fill:#28ab05;}.cls-15{stroke:#018a00;}.cls-16{stroke:#048e00;}.cls-17{fill:#e6e6e6;}.cls-18{fill-opacity:0.50196;}</style></defs><title>button 4SVG</title><polygon id="polygon178" class="cls-1" points="646.472 135.036 -55.783 135.036 -55.783 -447.455 646.472 -447.455 646.472 135.036"/><g id="g3296"><path id="path3298" class="cls-2" d="M4.65186,28.5384A14.84356,14.84356,0,0,1,.03139,16.68958,17.66988,17.66988,0,0,1,8.36525,2.74312,24.46834,24.46834,0,0,1,12.22037.81556,12.40024,12.40024,0,0,1,18.93848.19194c5.10236.85039,8.24881,3.42992,11.1685,7.48346a16.23281,16.23281,0,0,1-4.96063,23.18741,16.45925,16.45925,0,0,1-8.75905,2.49448A17.28294,17.28294,0,0,1,4.65186,28.5384Zm.45355-.45355A14.24748,14.24748,0,0,1,.655,16.68958,17.02871,17.02871,0,0,1,8.67706,3.2817a22.65455,22.65455,0,0,1,3.71338-1.84252,11.74739,11.74739,0,0,1,6.463-.59527c4.90393.7937,7.90866,3.25984,10.715,7.2a15.58319,15.58319,0,0,1-4.73386,22.28031,16.11783,16.11783,0,0,1-8.44724,2.38111A16.6134,16.6134,0,0,1,5.10541,28.08485Z"/><g id="g3300"><path id="path3302" class="cls-3" d="M7.28808,25.90218a12.4622,12.4622,0,0,1-3.14645-5.074A13.36088,13.36088,0,0,1,5.47391,10.73682a14.61079,14.61079,0,0,1,7.71024-6.37795A9.65871,9.65871,0,0,1,18.39989,3.877c3.96851.652,6.4063,2.63622,8.674,5.811A12.14277,12.14277,0,0,1,29.37,16.66123,12.95048,12.95048,0,0,1,16.41564,29.61556,13.38794,13.38794,0,0,1,7.28808,25.90218Z"/><g id="g3304"><path id="path3306" class="cls-4" d="M7.77,25.93052a11.04683,11.04683,0,0,1-2.97638-4.7622,12.42127,12.42127,0,0,1,1.24725-9.49607,13.59563,13.59563,0,0,1,7.42677-5.75433,10.95849,10.95849,0,0,1,5.1874-.51023c3.65669.51023,5.89606,2.55118,7.96536,5.49921A11.2808,11.2808,0,0,1,28.54792,17.54,12.0994,12.0994,0,0,1,16.41564,29.44548,12.597,12.597,0,0,1,7.77,25.93052Z"/><path id="path3308" class="cls-5" d="M8.25186,25.98722a10.98468,10.98468,0,0,1-2.83464-4.47875,11.75832,11.75832,0,0,1,1.19055-8.90078,12.5989,12.5989,0,0,1,7.1433-5.15906,13.18,13.18,0,0,1,5.13071-.51023c3.40158.3685,5.41418,2.43779,7.285,5.1874a10.519,10.519,0,0,1,1.5874,6.29291A11.317,11.317,0,0,1,16.41564,29.2754,12.1734,12.1734,0,0,1,8.25186,25.98722Z"/><path id="path3310" class="cls-6" d="M8.73375,26.01556a9.75276,9.75276,0,0,1-2.66457-4.16693A10.95878,10.95878,0,0,1,7.1747,13.54312c1.33228-2.15433,3.85511-3.62835,6.83149-4.56378A16.12894,16.12894,0,0,1,19.1369,8.4691c3.11811.22678,4.90394,2.32441,6.57638,4.8756a9.58945,9.58945,0,0,1,1.2189,5.95275A10.43582,10.43582,0,0,1,16.41564,29.077,11.3264,11.3264,0,0,1,8.73375,26.01556Z"/><path id="path3312" class="cls-7" d="M9.1873,26.07225a9.44957,9.44957,0,0,1-2.49449-3.88346A10.06929,10.06929,0,0,1,7.74163,14.5069c1.19055-1.89921,3.685-3.1748,6.548-3.9685a20.737,20.737,0,0,1,5.074-.53859c2.83465.11339,4.4504,2.23937,5.89607,4.59213a8.50731,8.50731,0,0,1,.85039,5.58425A9.59952,9.59952,0,0,1,16.444,28.9069,10.92072,10.92072,0,0,1,9.1873,26.07225Z"/><path id="path3314" class="cls-8" d="M9.66918,26.1006a8.49986,8.49986,0,0,1-2.3244-3.57165,9.24236,9.24236,0,0,1,.96377-7.08662c1.04882-1.61574,3.48662-2.66456,6.26457-3.37323a32.98319,32.98319,0,0,1,5.04567-.53858c2.55118-.02834,3.94016,2.126,5.1874,4.28032a7.63923,7.63923,0,0,1,.51024,5.24409A8.85582,8.85582,0,0,1,16.444,28.73682,10.181,10.181,0,0,1,9.66918,26.1006Z"/><path id="path3316" class="cls-9" d="M10.15107,26.15729A7.9848,7.9848,0,0,1,7.9684,22.8691c-.68032-2.06929-.02835-5.35748.93543-6.49133.87874-1.30394,3.25984-2.18268,5.95276-2.74961,2.01259-.34016,3.91181-.45354,5.01732-.56693,2.23937-.17008,3.42992,2.041,4.47874,3.9685a6.96868,6.96868,0,0,1,.14173,4.90394A8.03922,8.03922,0,0,1,16.444,28.5384,9.67745,9.67745,0,0,1,10.15107,26.15729Z"/><path id="path3318" class="cls-10" d="M10.633,26.18564a7.04725,7.04725,0,0,1-2.01259-2.97638c-.652-1.87086,0-5.04567.85039-5.89606.737-1.02047,3.06142-1.67244,5.64094-2.15433,2.0693-.25512,4.0252-.39685,4.989-.56693,1.98425-.31181,2.948,1.92756,3.79843,3.65669a6.19244,6.19244,0,0,1-.22678,4.56378A7.2606,7.2606,0,0,1,16.444,28.36832,8.88136,8.88136,0,0,1,10.633,26.18564Z"/><path id="path3320" class="cls-11" d="M11.11485,26.24233a6.13748,6.13748,0,0,1-1.84252-2.69291c-.59527-1.67244.02835-4.73386.76536-5.30079.59527-.70866,2.89134-1.19055,5.35748-1.53071,2.09764-.22677,4.13858-.3685,4.96063-.59527,1.67244-.45355,2.43779,1.81417,3.08976,3.34488a5.62265,5.62265,0,0,1-.56693,4.22362A6.617,6.617,0,0,1,16.444,28.19824,8.42538,8.42538,0,0,1,11.11485,26.24233Z"/><path id="path3322" class="cls-12" d="M11.5684,26.27068A5.54682,5.54682,0,0,1,9.896,23.88958c-.53859-1.474.11338-4.422.70866-4.70551.45354-.4252,2.69291-.68032,5.074-.93544a22.68867,22.68867,0,0,0,4.90394-.59527c1.41732-.59528,1.95591,1.72913,2.40945,3.03307a4.985,4.985,0,0,1-.93543,3.88346,5.99043,5.99043,0,0,1-5.58426,3.42992A7.66008,7.66008,0,0,1,11.5684,26.27068Z"/><path id="path3324" class="cls-13" d="M12.05029,26.299a4.65452,4.65452,0,0,1-1.50237-2.0693c-.51023-1.30393.14174-4.11023.62363-4.08189a45.77646,45.77646,0,0,1,4.79055-.3685c2.15433-.085,4.30866-.22677,4.87559-.59527,1.13386-.737,1.44567,1.61574,1.70079,2.72126a4.48328,4.48328,0,0,1-1.30394,3.5433,5.71483,5.71483,0,0,1-4.76221,2.3811A7.26151,7.26151,0,0,1,12.05029,26.299Z"/></g><path id="path3326" class="cls-14" d="M12.53218,26.35572a4.23382,4.23382,0,0,1-1.36063-1.75748c-.4252-1.13386.19842-3.82677.56693-3.515s8.50393.48189,9.326-.36851c.85039-.85039.99213,1.53071,1.02047,2.4378,0,2.49449-2.52283,4.50709-5.6126,4.50709A6.69946,6.69946,0,0,1,12.53218,26.35572Z"/></g><path id="path3328" class="cls-14" d="M8.30855,17.14312C2.83769,20.1195,4.62352,4.58564,16.41564,4.614c12.8126.02834,13.43622,14.71181,8.674,12.52913C21.48966,15.52737,12.07863,15.10218,8.30855,17.14312Z"/><path id="path3330" class="cls-14" d="M16.41564,25.95887a12.83267,12.83267,0,0,1-11.73543-7.6252,8.40293,8.40293,0,0,1-.68032-3.34488A11.80339,11.80339,0,0,0,8.11013,26.49745a12.85357,12.85357,0,0,0,21.14646-9.83622,12.1986,12.1986,0,0,0-.11339-1.75748A12.81038,12.81038,0,0,1,16.41564,25.95887Z"/><g id="g3332"><g id="g3334"><path id="path3336" class="cls-15" d="M23.19044,18.277c.36851.68031.48189,1.27559-.99212,1.27559H18.655v3.34488a1.2529,1.2529,0,0,1-1.2189,1.24725H15.707a1.25832,1.25832,0,0,1-1.24724-1.24725V19.55257H10.66131c-.93543.02835-1.1622-.34016-.82205-.96378l6.15118-8.13543a.884.884,0,0,1,1.30394.02834Z"/><path id="path3338" class="cls-3" d="M23.19044,18.277c.36851.68031.48189,1.27559-.99212,1.27559H18.655v3.34488a1.2529,1.2529,0,0,1-1.2189,1.24725H15.707a1.25832,1.25832,0,0,1-1.24724-1.24725V19.55257H10.66131c-.93543.02835-1.1622-.34016-.82205-.96378l6.15118-8.13543a.884.884,0,0,1,1.30394.02834Z"/></g><g id="g3340"><g id="g3342"><path id="path3344" class="cls-16" d="M23.10541,17.34155c.3685.68031.48188,1.24724-.99213,1.27559H18.57V21.962a1.23414,1.23414,0,0,1-1.24724,1.2189H15.62194A1.23414,1.23414,0,0,1,14.3747,21.962V18.61714H10.57627c-.93543,0-1.1622-.36851-.822-.99213l6.15119-8.13543a.884.884,0,0,1,1.30393.02834Z"/><path id="path3346" class="cls-17" d="M23.10541,17.34155c.3685.68031.48188,1.24724-.99213,1.27559H18.57V21.962a1.23414,1.23414,0,0,1-1.24724,1.2189H15.62194A1.23414,1.23414,0,0,1,14.3747,21.962V18.61714H10.57627c-.93543,0-1.1622-.36851-.822-.99213l6.15119-8.13543a.884.884,0,0,1,1.30393.02834Z"/></g><path id="path3348" class="cls-2" d="M16.444,23.18092h-.822A1.23414,1.23414,0,0,1,14.3747,21.962V18.61714H10.57627c-.93543,0-1.1622-.36851-.822-.99213l6.15119-8.13543a.85071.85071,0,0,1,.53858-.25512Z"/></g></g><path id="path3350" class="cls-18" d="M4.68021,28.5384A14.91641,14.91641,0,0,1,.05974,16.68958,17.61922,17.61922,0,0,1,8.36525,2.77147,23.60289,23.60289,0,0,1,12.24871.84391,12.54731,12.54731,0,0,1,18.93848.22029c5.10236.85039,8.22047,3.40157,11.14015,7.48346a16.1892,16.1892,0,0,1-4.93228,23.13071A16.53128,16.53128,0,0,1,16.3873,33.329,17.18588,17.18588,0,0,1,4.68021,28.5384ZM15.59359,5.15257c2.09764,2.29606,1.33229,6.463-1.72913,9.29764-3.08976,2.8063-7.285,3.23149-9.411.90708-1.50237-1.61574-1.89922-7.48346-2.4378,1.33229A13.098,13.098,0,0,0,6.06918,27.12107,15.28315,15.28315,0,0,0,16.41564,31.3447a14.37234,14.37234,0,0,0,7.00158-1.78583,2.077,2.077,0,0,1-1.50237-.68032c-.96378-1.02047-.62362-2.89133.76536-4.13858,1.389-1.27559,3.25984-1.474,4.22362-.4252a2.36259,2.36259,0,0,1,.45354,2.15433A14.1578,14.1578,0,0,0,28.46289,8.75257C25.9117,5.18092,23.13375,2.9132,18.655,2.17619a10.50074,10.50074,0,0,0-5.89606.56693A16.93611,16.93611,0,0,0,10.3495,3.84863,5.29662,5.29662,0,0,1,15.59359,5.15257Z"/><path id="path3352" class="cls-18" d="M4.65186,28.5384A14.84356,14.84356,0,0,1,.03139,16.68958,17.66988,17.66988,0,0,1,8.36525,2.74312,24.46834,24.46834,0,0,1,12.22037.81556,12.40024,12.40024,0,0,1,18.93848.19194c5.10236.85039,8.24881,3.42992,11.1685,7.48346a16.23281,16.23281,0,0,1-4.96063,23.18741,16.45925,16.45925,0,0,1-8.75905,2.49448A17.28294,17.28294,0,0,1,4.65186,28.5384Zm3.99685-3.99685a9.95641,9.95641,0,0,1-3.06141-7.852,11.78576,11.78576,0,0,1,5.52755-9.24095A16.80888,16.80888,0,0,1,13.69438,6.173a8.13029,8.13029,0,0,1,4.42205-.39685c3.37323.53858,5.47086,2.23937,7.39842,4.93228a10.73021,10.73021,0,0,1-3.28818,15.36378,10.95373,10.95373,0,0,1-5.78268,1.6441A11.39806,11.39806,0,0,1,8.64871,24.54155Z"/><path id="path3354" class="cls-2" d="M15.707,2.96989c.822,1.389-.19843,3.48662-2.26772,4.70551C11.37,8.866,9.04556,8.69588,8.22352,7.3069c-.79371-1.389.22677-3.48661,2.29606-4.67717S14.91328,1.58092,15.707,2.96989Z"/><path id="path3356" class="cls-2" d="M7.48651,7.6754c.652.70867.31181,2.0693-.737,3.03307s-2.4378,1.16221-3.08976.45355-.31182-2.06929.737-3.03307C5.47391,7.16517,6.83454,6.96674,7.48651,7.6754Z"/><path id="path3358" class="cls-2" d="M23.41722,28.45336c.45354.62362.02834,1.67244-.90709,2.32441-.96378.652-2.06929.652-2.52284,0-.42519-.62363,0-1.67244.93544-2.32441S22.992,27.80139,23.41722,28.45336Z"/></g></svg>